<?xml version="1.0" encoding="iso-8859-1"?>
<!-- Generator: Adobe Illustrator 21.0.0, SVG Export Plug-In . SVG Version: 6.00 Build 0)  -->
<svg version="1.1" xmlns="http://www.w3.org/2000/svg" xmlns:xlink="http://www.w3.org/1999/xlink" x="0px" y="0px"
	 viewBox="0 0 44 44" style="enable-background:new 0 0 44 44;" xml:space="preserve">
<g id="vector">
</g>
<g id="palette">
</g>
<g id="graffiti">
</g>
<g id="brush_x5F_2">
</g>
<g id="artboard">
	<g>
		<path d="M22,33c-0.552,0-1,0.448-1,1v9c0,0.552,0.448,1,1,1c0.553,0,1-0.448,1-1v-9C23,33.448,22.553,33,22,33z"/>
		<path d="M28.948,33.683c-0.175-0.523-0.735-0.809-1.265-0.632c-0.523,0.175-0.807,0.741-0.632,1.265L27.613,36H26
			c-0.553,0-1,0.448-1,1s0.447,1,1,1h2.28l1.772,5.316C30.191,43.735,30.581,44,31,44c0.104,0,0.211-0.017,0.316-0.052
			c0.523-0.175,0.807-0.741,0.632-1.265L28.948,33.683z"/>
		<path d="M11,28h22c1.654,0,3-1.346,3-3V9c0-1.654-1.346-3-3-3H11C9.346,6,8,7.345,8,9v16C8,26.654,9.346,28,11,28z M10,9
			c0-0.551,0.449-1,1-1h22c0.552,0,1,0.449,1,1v16c0,0.551-0.448,1-1,1H11c-0.551,0-1-0.449-1-1V9z"/>
		<path d="M36,29H8c-0.552,0-1,0.448-1,1s0.448,1,1,1h28c0.553,0,1-0.448,1-1S36.553,29,36,29z"/>
		<path d="M18,5h8c0.553,0,1-0.448,1-1s-0.447-1-1-1h-3V1c0-0.552-0.447-1-1-1c-0.552,0-1,0.448-1,1v2h-3c-0.552,0-1,0.448-1,1
			S17.448,5,18,5z"/>
		<path d="M17,16c1.654,0,3-1.346,3-3s-1.346-3-3-3s-3,1.346-3,3S15.346,16,17,16z M17,12c0.551,0,1,0.449,1,1s-0.449,1-1,1
			s-1-0.449-1-1S16.449,12,17,12z"/>
		<path d="M13.515,23.857l4.143-2.485c0.811-0.487,1.875-0.487,2.686,0l4.143,2.485C24.646,23.954,24.824,24,24.999,24
			c0.34,0,0.671-0.173,0.858-0.485c0.284-0.474,0.131-1.088-0.343-1.372l-1.501-0.901l3.374-5.905
			c0.247-0.428,0.958-0.409,1.179,0.033l2.539,5.078c0.247,0.494,0.848,0.693,1.342,0.447c0.494-0.247,0.694-0.848,0.447-1.342
			l-2.539-5.077C29.901,13.565,28.986,13,27.969,13c-0.956,0-1.844,0.516-2.317,1.345l-3.353,5.868l-0.926-0.556
			c-1.432-0.859-3.312-0.859-4.744,0l-4.143,2.485c-0.474,0.284-0.627,0.898-0.343,1.372C12.427,23.988,13.042,24.142,13.515,23.857
			z"/>
		<path d="M18,36h-1.612l0.561-1.684c0.175-0.524-0.108-1.09-0.632-1.265c-0.527-0.176-1.091,0.109-1.265,0.632l-3,9
			c-0.175,0.524,0.108,1.09,0.632,1.265C12.789,43.984,12.896,44,13,44c0.419,0,0.809-0.265,0.949-0.684L15.721,38H18
			c0.552,0,1-0.448,1-1S18.552,36,18,36z"/>
	</g>
</g>
<g id="picker">
</g>
<g id="pencil">
</g>
<g id="pen_1_">
</g>
<g id="bucket">
</g>
<g id="brush_x5F_1">
</g>
<g id="scissors">
</g>
<g id="web_x5F_design">
</g>
<g id="needle">
</g>
<g id="safety_x5F_pin">
</g>
<g id="sewing_x5F_machine">
</g>
<g id="woolen">
</g>
<g id="colors">
</g>
<g id="knife">
</g>
<g id="crayon">
</g>
<g id="tablet">
</g>
</svg>
