<?xml version="1.0" encoding="iso-8859-1"?>
<!-- Generator: Adobe Illustrator 21.0.0, SVG Export Plug-In . SVG Version: 6.00 Build 0)  -->
<svg version="1.1" xmlns="http://www.w3.org/2000/svg" xmlns:xlink="http://www.w3.org/1999/xlink" x="0px" y="0px"
	 viewBox="0 0 44 44" style="enable-background:new 0 0 44 44;" xml:space="preserve">
<g id="vector">
	<g>
		<path d="M39,26h-1.047C37.496,18.657,32.069,12.661,25,11.312V10c0-0.552-0.448-1-1-1h-4c-0.552,0-1,0.448-1,1v1.312
			C11.931,12.661,6.504,18.657,6.047,26H5c-0.552,0-1,0.448-1,1v4c0,0.552,0.448,1,1,1h4c0.552,0,1-0.448,1-1v-4
			c0-0.552-0.448-1-1-1H8.046C8.49,19.762,13.037,14.66,19,13.351V14c0,0.552,0.448,1,1,1h4c0.552,0,1-0.448,1-1v-0.649
			C30.963,14.66,35.51,19.762,35.954,26H35c-0.552,0-1,0.448-1,1v4c0,0.552,0.448,1,1,1h4c0.552,0,1-0.448,1-1v-4
			C40,26.447,39.552,26,39,26z M8,29.999H6v-2h2V29.999z M23,13h-2v-2h2V13z M38,29.999h-2v-2h2V29.999z"/>
		<path d="M41,9c-1.302,0-2.402,0.838-2.816,2H32c-0.552,0-1,0.448-1,1c0,0.552,0.448,1,1,1h6.184c0.414,1.161,1.514,2,2.816,2
			c1.654,0,3-1.346,3-3S42.654,9,41,9z M41,13c-0.551,0-1-0.449-1-1c0-0.551,0.449-1,1-1s1,0.449,1,1C42,12.551,41.551,13,41,13z"/>
		<path d="M5.816,13H12c0.552,0,1-0.448,1-1c0-0.552-0.448-1-1-1H5.816C5.402,9.838,4.302,9,3,9c-1.654,0-3,1.346-3,3s1.346,3,3,3
			C4.302,15,5.402,14.161,5.816,13z M3,13c-0.551,0-1-0.449-1-1c0-0.551,0.449-1,1-1s1,0.449,1,1C4,12.551,3.551,13,3,13z"/>
		<path d="M24.327,20.594C23.959,19.64,23.024,19,22,19s-1.959,0.641-2.328,1.595l-4.543,11.773
			c-0.275,0.715-0.103,1.526,0.44,2.066C15.946,34.809,16.442,35,16.94,35c0.426,0,0.854-0.14,1.209-0.424l3.192-2.545
			c0.382-0.305,0.935-0.305,1.316,0l3.192,2.545c0.772,0.616,1.881,0.555,2.58-0.143c0.543-0.541,0.715-1.352,0.44-2.066
			L24.327,20.594z M23.905,30.467c-1.122-0.895-2.688-0.895-3.811,0l-3.017,2.405l4.46-11.558C21.611,21.126,21.796,21,22,21
			s0.389,0.126,0.461,0.314l4.46,11.558L23.905,30.467z"/>
	</g>
</g>
<g id="palette">
</g>
<g id="graffiti">
</g>
<g id="brush_x5F_2">
</g>
<g id="artboard">
</g>
<g id="picker">
</g>
<g id="pencil">
</g>
<g id="pen_1_">
</g>
<g id="bucket">
</g>
<g id="brush_x5F_1">
</g>
<g id="scissors">
</g>
<g id="web_x5F_design">
</g>
<g id="needle">
</g>
<g id="safety_x5F_pin">
</g>
<g id="sewing_x5F_machine">
</g>
<g id="woolen">
</g>
<g id="colors">
</g>
<g id="knife">
</g>
<g id="crayon">
</g>
<g id="tablet">
</g>
</svg>
