<?xml version="1.0" encoding="iso-8859-1"?>
<!-- Generator: Adobe Illustrator 21.0.0, SVG Export Plug-In . SVG Version: 6.00 Build 0)  -->
<svg version="1.1" xmlns="http://www.w3.org/2000/svg" xmlns:xlink="http://www.w3.org/1999/xlink" x="0px" y="0px"
	 viewBox="0 0 44 44" style="enable-background:new 0 0 44 44;" xml:space="preserve">
<g id="note">
</g>
<g id="headphones">
</g>
<g id="microphone">
</g>
<g id="metronome">
</g>
<g id="disk">
</g>
<g id="ipod">
</g>
<g id="speaker">
</g>
<g id="gramophone">
</g>
<g id="player">
</g>
<g id="drum">
</g>
<g id="settings">
	<g>
		<circle cx="22" cy="8" r="2"/>
		<circle cx="33" cy="8" r="2"/>
		<circle cx="11" cy="8" r="2"/>
		<path d="M41,0H3C1.346,0,0,1.346,0,3v38c0,1.654,1.346,3,3,3h38c1.654,0,3-1.346,3-3V3C44,1.346,42.654,0,41,0z M42,41
			c0,0.551-0.449,1-1,1H3c-0.551,0-1-0.449-1-1V3c0-0.551,0.449-1,1-1h38c0.551,0,1,0.449,1,1V41z"/>
		<path d="M22,32c-0.552,0-1,0.448-1,1v4c0,0.552,0.448,1,1,1s1-0.448,1-1v-4C23,32.448,22.552,32,22,32z"/>
		<path d="M33,23c-0.552,0-1,0.448-1,1v13c0,0.552,0.448,1,1,1s1-0.448,1-1V24C34,23.448,33.552,23,33,23z"/>
		<path d="M11,26c-0.552,0-1,0.448-1,1v10c0,0.552,0.448,1,1,1s1-0.448,1-1V27C12,26.448,11.552,26,11,26z"/>
		<path d="M14,20h-0.184c-0.302-0.847-0.969-1.514-1.816-1.816V13c0-0.552-0.448-1-1-1s-1,0.448-1,1v5.184
			C9.153,18.486,8.486,19.153,8.184,20H8c-0.552,0-1,0.448-1,1s0.448,1,1,1h0.184c0.414,1.161,1.514,2,2.816,2s2.402-0.839,2.816-2
			H14c0.552,0,1-0.448,1-1S14.552,20,14,20z M11,22c-0.551,0-1-0.449-1-1s0.449-1,1-1s1,0.449,1,1S11.551,22,11,22z"/>
		<path d="M25,26h-0.184c-0.302-0.847-0.969-1.514-1.816-1.816V13c0-0.552-0.448-1-1-1s-1,0.448-1,1v11.184
			c-0.847,0.302-1.514,0.969-1.816,1.816H19c-0.552,0-1,0.448-1,1s0.448,1,1,1h0.184c0.414,1.161,1.514,2,2.816,2
			s2.401-0.838,2.816-2H25c0.552,0,1-0.448,1-1S25.552,26,25,26z M22,28c-0.551,0-1-0.449-1-1s0.449-1,1-1s1,0.449,1,1
			S22.551,28,22,28z"/>
		<path d="M36,17h-0.184c-0.302-0.847-0.969-1.514-1.816-1.816V13c0-0.552-0.448-1-1-1s-1,0.448-1,1v2.184
			c-0.847,0.302-1.514,0.969-1.816,1.816H30c-0.552,0-1,0.448-1,1s0.448,1,1,1h0.184c0.414,1.161,1.514,2,2.816,2
			s2.402-0.839,2.816-2H36c0.552,0,1-0.448,1-1S36.552,17,36,17z M33,19c-0.551,0-1-0.449-1-1s0.449-1,1-1s1,0.449,1,1
			S33.551,19,33,19z"/>
	</g>
</g>
<g id="piano">
</g>
<g id="Layer_10">
</g>
<g id="guitar">
</g>
<g id="accordion">
</g>
<g id="dj_x5F_set">
</g>
<g id="cassette">
</g>
<g id="balalaika">
</g>
<g id="radio">
</g>
<g id="pan_x5F_flute">
</g>
</svg>
