<?xml version="1.0" encoding="utf-8"?>
<!-- Generator: Adobe Illustrator 23.1.1, SVG Export Plug-In . SVG Version: 6.00 Build 0)  -->
<svg version="1.1" id="Layer_1" xmlns="http://www.w3.org/2000/svg" xmlns:xlink="http://www.w3.org/1999/xlink" x="0px" y="0px"
	 viewBox="0 0 927.4 201.1" style="enable-background:new 0 0 927.4 201.1;" xml:space="preserve">
<style type="text/css">
	.st0{fill:#39FF14;}
</style>
<g>
	<path class="st0" d="M51.2,29.8l38.7,84.4L138.6,0l49,114.2l38.5-84.9c3.7-8.2,12-13.5,21-13.5h29.7l-90.3,185.3l-48-111l-48.5,111
		L0,15.8h29.3C38.8,15.8,47.3,21.2,51.2,29.8z"/>
	<path class="st0" d="M444.3,15.8h20v172.4h-40v-18.1c-16.4,15.3-34,23-52.9,23c-23.8,0-43.5-8.6-59.1-25.8
		c-15.5-17.6-23.2-39.5-23.2-65.8c0-25.9,7.7-47.4,23.2-64.6C327.7,19.6,347,11,370.3,11c20.1,0,38.1,8.3,54,24.8l0,0
		C424.3,24.7,433.2,15.8,444.3,15.8z M329.8,101.4c0,16.5,4.4,30,13.3,40.4c9.1,10.5,20.5,15.8,34.3,15.8c14.8,0,26.7-5.1,35.8-15.2
		c9.1-10.5,13.6-23.8,13.6-40s-4.5-29.5-13.6-40c-9.1-10.3-20.9-15.4-35.4-15.4c-13.7,0-25.1,5.2-34.3,15.6
		C334.3,73,329.8,86,329.8,101.4z"/>
	<path class="st0" d="M546.5,30.1l38,82.5l37.8-82.4c4-8.8,12.8-14.5,22.5-14.5h28.9L584.2,200L495.3,15.7h28.8
		C533.8,15.8,542.5,21.3,546.5,30.1z"/>
	<path class="st0" d="M850.8,111.3H727.2c1.1,14.2,5.7,25.4,13.8,33.8c8.1,8.3,18.6,12.4,31.3,12.4c9.9,0,18.1-2.4,24.6-7.1
		c3.3-2.4,6.8-6,10.6-10.5c7.1-8.6,19.2-11.2,29-5.7l15.8,8.8c-5.2,8.8-10.7,16.4-16.5,22.8c-5.8,6.3-12,11.5-18.6,15.6
		c-6.6,4.1-13.8,7-21.4,8.9c-7.7,1.9-16,2.8-25,2.8c-25.7,0-46.4-8.3-62-24.8c-15.6-16.6-23.4-38.7-23.4-66.2
		c0-27.3,7.5-49.3,22.7-66.2c15.2-16.6,35.4-25,60.5-25c25.4,0,45.4,8.1,60.2,24.2c14.6,16,22,38.3,22,66.7L850.8,111.3z
		 M809.9,78.8c-5.5-21.2-18.9-31.9-40.2-31.9c-4.8,0-9.4,0.7-13.6,2.2c-4.2,1.5-8.1,3.6-11.6,6.4c-3.5,2.8-6.5,6.1-8.9,10
		s-4.4,8.3-5.7,13.3L809.9,78.8L809.9,78.8z"/>
	<path class="st0" d="M878.2,176.3c0-6.6,2.4-12.3,7.3-17.2c4.8-4.8,10.6-7.3,17.3-7.3s12.5,2.4,17.3,7.3c7,7,8.9,16,5.8,26.9
		c-5.5,10-13.2,15-23.2,15c-7,0-12.8-2.4-17.5-7.1C880.6,189.3,878.2,183.4,878.2,176.3z"/>
</g>
</svg>
